<svg width="152" height="26" viewBox="0 0 152 26" fill="none" xmlns="http://www.w3.org/2000/svg">
    <path d="M36.553 15.2a6.838 6.838 0 0 0-3.38-1.952 6.91 6.91 0 0 0 3.352-1.971c1.403-1.473 2.102-3.32 2.117-5.533h-3.616c-.006 1.27-.366 2.307-1.08 3.12-.72.82-1.665 1.228-2.835 1.228-1.152 0-2.099-.412-2.836-1.228-.735-.81-1.1-1.85-1.107-3.12h-3.624c0 2.259.698 4.115 2.095 5.575a6.812 6.812 0 0 0 3.377 1.941 7.038 7.038 0 0 0-3.326 1.968c-1.43 1.49-2.146 3.362-2.146 5.617h3.621l-.003-.027c0-1.279.363-2.334 1.083-3.16.72-.828 1.665-1.245 2.835-1.245 1.152 0 2.099.42 2.836 1.258.738.837 1.11 1.89 1.11 3.147 0 .01-.003.018-.003.027h3.616c0-.02.003-.036.003-.054.003-2.258-.693-4.12-2.09-5.59z" fill="#111314"/>
    <path fill-rule="evenodd" clip-rule="evenodd" d="M4.198 25.785v-6.152c1.148.98 2.57 1.47 4.262 1.472 2.352 0 4.23-.746 5.633-2.243 1.396-1.496 2.1-3.365 2.1-5.605 0-2.295-.691-4.163-2.073-5.602-1.382-1.442-3.21-2.162-5.49-2.162-1.956 0-3.498.563-4.629 1.693V5.744H.42v20.041h3.779zm-.112-12.474c0-1.3.38-2.367 1.13-3.204.75-.835 1.757-1.255 3.02-1.255 1.243 0 2.25.417 3.021 1.255.77.837 1.158 1.904 1.158 3.204 0 1.3-.381 2.365-1.13 3.193-.754.825-1.76 1.24-3.021 1.24-1.243 0-2.25-.412-3.02-1.24-.771-.831-1.158-1.893-1.158-3.193zM17.987 4.142c.441.43.976.647 1.596.647.638 0 1.176-.218 1.608-.647.43-.432.647-.962.647-1.581 0-.641-.211-1.182-.647-1.624-.432-.441-.967-.662-1.608-.662-.62 0-1.155.22-1.596.662a2.207 2.207 0 0 0-.662 1.624c0 .622.22 1.146.662 1.58zm-.296 16.706h3.785V5.744H17.69v15.104zM42.995 14.524H53.78c.036-.433.054-.95.06-1.548 0-2.277-.668-4.094-2.004-5.448-1.333-1.358-3.132-2.035-5.39-2.035-2.18 0-3.967.738-5.349 2.216-1.381 1.479-2.073 3.356-2.073 5.633 0 2.37.71 4.256 2.13 5.66 1.419 1.402 3.287 2.1 5.603 2.1 1.675 0 3.063-.378 4.163-1.13 1.1-.75 1.914-1.684 2.44-2.794l-2.794-1.693c-.961 1.509-2.23 2.259-3.812 2.259-1.076 0-1.944-.288-2.612-.862-.671-.578-1.052-1.364-1.146-2.358zm1.116-5.007c.59-.556 1.357-.834 2.297-.834 1.001 0 1.808.275 2.428.834.623.56.98 1.276 1.073 2.162h-6.83c.094-.886.44-1.609 1.032-2.162z" fill="#111314"/>
    <path fill="#111314" d="M55.502.215h3.785v20.634h-3.785zM76 5.578c-1.581 0-2.842.544-3.785 1.635-.771-1.09-1.965-1.635-3.586-1.635-1.45 0-2.533.435-3.247 1.3V5.744h-3.785v15.101h3.785V11.39c0-.771.179-1.373.538-1.805.354-.43.865-.647 1.524-.647.641 0 1.134.214 1.481.647.348.435.524 1.016.524 1.75v9.511h3.785v-9.51c0-.717.172-1.298.523-1.736.347-.442.852-.662 1.508-.662.66 0 1.161.211 1.509.635.348.423.52 1.012.52 1.765v9.511h3.782v-9.964c0-1.581-.408-2.86-1.227-3.84-.817-.98-2.099-1.466-3.849-1.466z"/>
    <path fill-rule="evenodd" clip-rule="evenodd" d="M94.71 7.153c-.45-.507-1.077-.91-1.873-1.21-.802-.299-1.66-.45-2.582-.45-2.298 0-4.16.735-5.59 2.204-1.43 1.47-2.144 3.332-2.144 5.59 0 2.334.714 4.218 2.144 5.66 1.43 1.442 3.295 2.161 5.59 2.161 1.091 0 2.025-.178 2.808-.538.783-.354 1.352-.762 1.708-1.212v1.493h3.525v-15.1h-3.585v1.402zm-4.229 10.59c1.264 0 2.27-.417 3.02-1.254.75-.838 1.131-1.908 1.128-3.205 0-1.279-.39-2.337-1.173-3.174-.783-.838-1.774-1.255-2.978-1.255-1.26 0-2.27.42-3.032 1.255-.759.837-1.143 1.895-1.143 3.174 0 1.3.387 2.367 1.158 3.205.774.837 1.78 1.255 3.02 1.255z" fill="#111314"/>
    <path d="M113.513 3.374h-3.786v2.37h-4.683v-2.37h-3.776v2.37h-1.412v3.193h1.412v8.102c0 2.636 1.346 3.954 4.036 3.954.375 0 .732-.015 1.059-.042.326-.027.58-.06.746-.1l.254-.054v-3.22h-.877c-.526 0-.9-.127-1.115-.384-.218-.254-.324-.662-.324-1.227V8.934h4.683v8.102c0 2.636 1.343 3.954 4.036 3.954.375 0 .732-.015 1.059-.042.326-.027.58-.06.746-.1l.254-.054v-3.22h-.876c-.526 0-.901-.127-1.116-.384-.218-.254-.324-.662-.324-1.227V8.93h2.316V5.744h-2.316v-2.37h.004z" fill="#111314"/>
    <path fill-rule="evenodd" clip-rule="evenodd" d="M118.764 7.71c1.382-1.48 3.165-2.217 5.348-2.217 2.255 0 4.054.68 5.391 2.035 1.336 1.354 2.004 3.168 2.004 5.448a21.117 21.117 0 0 1-.061 1.548h-10.783c.093.997.477 1.783 1.145 2.358.668.574 1.536.861 2.612.861 1.582 0 2.851-.752 3.813-2.258l2.793 1.693c-.526 1.11-1.339 2.04-2.44 2.794-1.1.752-2.488 1.13-4.163 1.13-2.315 0-4.181-.698-5.602-2.1-1.421-1.404-2.131-3.29-2.131-5.66 0-2.28.692-4.154 2.074-5.633zm3.011 1.804c-.592.556-.937 1.276-1.031 2.162h6.833c-.094-.886-.454-1.603-1.074-2.162-.622-.56-1.427-.834-2.427-.834-.94 0-1.708.278-2.301.834z" fill="#111314"/>
    <path d="M136.955 6.96V5.744h-3.785v15.101h3.785v-9.202c0-.675.151-1.18.45-1.509.3-.327.808-.493 1.524-.493h.958V5.687c-1.354.003-2.334.426-2.932 1.273zM150.72 13.326c-.575-.707-1.494-1.248-2.754-1.623-.263-.076-.62-.17-1.074-.281-.45-.115-.783-.2-.988-.254-.886-.245-1.328-.717-1.328-1.412 0-.375.14-.683.415-.919.272-.233.635-.35 1.085-.35 1.113 0 1.684.61 1.723 1.831h3.471c-.018-1.56-.469-2.748-1.354-3.555-.883-.81-2.135-1.212-3.752-1.212-1.506 0-2.742.414-3.713 1.24-.967.828-1.454 1.88-1.454 3.159 0 2.219 1.043 3.71 3.132 4.459.299.115 1.061.341 2.286.68.526.151.91.342 1.145.565.236.227.351.557.351.989 0 .432-.169.768-.505 1.004-.341.233-.765.35-1.273.35-1.224 0-1.832-.68-1.832-2.034h-3.612c-.055 1.47.341 2.684 1.2 3.643.855.961 2.255 1.442 4.19 1.442 1.56 0 2.866-.414 3.921-1.24 1.055-.828 1.581-1.974 1.581-3.443 0-1.321-.287-2.331-.861-3.038z" fill="#111314"/>
</svg>
